PathFileType	4	(X/Y/Z)	C:/Users/opensim2020/Desktop/walking_exp_matlab/subject01_walking12_straight_04.trc																																																																																																																																		
DataRate	CameraRate	NumFrames	NumMarkers	Units	OrigDataRate	OrigDataStartFrame	OrigNumFrames																																																																																																																														
100	100	4	44	mm	100	2415	172																																																																																																																														
Frame#	Time	LFHD			RFHD			LBHD			RBHD			C7			T10			CLAV			STRN			RBAK			LSHO			LUPA			LELB			LFRM			LWRA			LWRB			LFIN			RSHO			RUPA			RELB			RFRM			RWRA			RWRB			RFIN			LASI			RASI			LPSI			RPSI			LTHI			LKNE			LTIB			LANK			LHEE			LTOE			RTHI			RKNE			RTIB			RANK			RHEE			RTOE			*39			*40			*41			*42			*43		
		X1	Y1	Z1	X2	Y2	Z2	X3	Y3	Z3	X4	Y4	Z4	X5	Y5	Z5	X6	Y6	Z6	X7	Y7	Z7	X8	Y8	Z8	X9	Y9	Z9	X10	Y10	Z10	X11	Y11	Z11	X12	Y12	Z12	X13	Y13	Z13	X14	Y14	Z14	X15	Y15	Z15	X16	Y16	Z16	X17	Y17	Z17	X18	Y18	Z18	X19	Y19	Z19	X20	Y20	Z20	X21	Y21	Z21	X22	Y22	Z22	X23	Y23	Z23	X24	Y24	Z24	X25	Y25	Z25	X26	Y26	Z26	X27	Y27	Z27	X28	Y28	Z28	X29	Y29	Z29	X30	Y30	Z30	X31	Y31	Z31	X32	Y32	Z32	X33	Y33	Z33	X34	Y34	Z34	X35	Y35	Z35	X36	Y36	Z36	X37	Y37	Z37	X38	Y38	Z38	X39	Y39	Z39	X40	Y40	Z40	X41	Y41	Z41	X42	Y42	Z42	X43	Y43	Z43	X44	Y44	Z44
																																																																																																																																					
44	0.43	-433.05484	1669.77612	-1512.00037	-414.9541	1670.2063	-1400.24463	-551.95349	1633.61938	-1501.01111	-535.65747	1632.85388	-1381.44385	-598.89801	1434.32019	-1455.99365	-635.07983	1139.94788	-1443.83093	-455.90512	1364.79443	-1468.83862	-414.65353	1211.25549	-1481.05872	-646.44226	1237.87317	-1374.33447	-532.65698	1398.69678	-1622.82495	-583.71051	1223.38049	-1709.5199	-599.72595	1070.94971	-1725.35461	-534.50513	980.34448	-1768.42651	-419.2132	902.62732	-1779.50281	-472.67798	877.44672	-1790.20142	-409.15158	832.41779	-1820.67407	-503.71924	1392.02722	-1311.95715	-570.6076	1199.16309	-1205.03784	-584.42657	1074.745	-1199.96191	-569.44934	954.82367	-1171.21094	-508.93628	827.74805	-1198.94275	-546.86816	835.11707	-1153.48779	-522.47925	752.39099	-1160.71045	-475.23068	932.35681	-1576.12207	-440.89636	936.59424	-1361.50745	-650.46423	941.78394	-1495.28821	-626.57324	948.04852	-1352.1012	-490.62277	600.9884	-1646.34875	-496.83951	467.99057	-1644.12769	-647.95416	361.43704	-1639.25916	-814.69214	229.59846	-1572.66406	-850.09589	241.98093	-1508.57214	-778.72278	88.01594	-1587.27576	-461.49881	602.22717	-1311.92041	-440.41974	446.87219	-1347.39917	-490.53696	276.02322	-1346.27502	-518.77655	75.95161	-1400.48169	-570.55951	39.44674	-1448.38342	-379.871	37.36739	-1404.59961	-424.98212	1705.24268	-1420.67163	-1973.19202	1023.43573	3101.94702	-2012.52576	1022.13104	3140.86792	NaN	NaN	NaN	NaN	NaN	NaN
45	0.44	-421.62164	1670.09155	-1512.18359	-403.35513	1670.49438	-1400.44434	-540.58112	1634.26892	-1501.00452	-524.21295	1633.47217	-1381.43225	-588.00836	1435.00513	-1455.99988	-624.67285	1140.67615	-1443.76282	-445.25143	1365.16772	-1469.02417	-404.27466	1211.53101	-1481.03284	-635.9292	1238.74316	-1374.21082	-522.07196	1399.2605	-1623.05847	-574.99451	1223.85974	-1708.77527	-592.69104	1071.57776	-1723.5155	-529.49841	979.31598	-1765.91272	-415.99167	898.87537	-1776.45239	-469.9996	874.90198	-1786.93811	-407.59567	827.91266	-1816.71411	-492.93588	1392.76221	-1312.0636	-558.25543	1199.6449	-1204.60913	-570.99622	1075.08594	-1199.17273	-553.78644	955.31506	-1170.8114	-490.89755	829.46765	-1198.85864	-528.22876	836.11945	-1153.95093	-502.44437	754.09906	-1160.46484	-464.07571	933.51752	-1575.62341	-431.06134	936.83716	-1360.58301	-639.72858	942.43726	-1496.10254	-616.90155	948.1925	-1352.7522	-472.49631	602.92102	-1646.34143	-475.68121	470.01065	-1644.37256	-626.04596	363.17755	-1638.56689	-791.52625	229.24168	-1572.6123	-827.93549	239.29872	-1508.04639	-751.07269	90.15272	-1591.36389	-455.54892	602.18298	-1312.15259	-436.36322	446.07278	-1347.15527	-488.26169	276.06979	-1346.69958	-518.51355	76.16102	-1400.47766	-570.56274	39.97277	-1448.70764	-379.52603	37.18237	-1404.56726	-413.2294	1705.60962	-1420.85657	-1973.13184	1023.5191	3101.8916	-2012.52112	1022.11938	3140.80664	NaN	NaN	NaN	NaN	NaN	NaN
46	0.45	-410.16653	1670.24377	-1512.44141	-391.68307	1670.66589	-1400.70032	-529.23187	1634.82471	-1501.14929	-512.70227	1634.02356	-1381.59509	-577.23279	1435.62878	-1456.09827	-614.31451	1141.32825	-1443.78601	-434.61197	1365.5752	-1469.24268	-393.91119	1211.84766	-1480.95178	-625.42859	1239.53809	-1373.90771	-511.51303	1399.61829	-1623.18933	-566.04901	1224.31238	-1708.18616	-585.66681	1072.14709	-1721.63367	-524.55304	978.32062	-1763.38477	-412.83179	895.11627	-1773.30688	-467.62717	872.53699	-1783.75403	-406.02228	823.3548	-1812.66724	-482.17929	1393.47156	-1312.26721	-545.84088	1200.09607	-1204.27271	-557.64319	1075.37891	-1198.38147	-538.0321	955.77118	-1170.46082	-472.94647	831.39117	-1199.13281	-510.52728	837.02264	-1153.77039	-482.28815	755.95569	-1160.39661	-453.05432	934.54327	-1574.94922	-421.35599	936.9837	-1359.70032	-629.0658	943.16663	-1497.10693	-607.27893	948.36884	-1353.57019	-454.80365	604.8623	-1646.21814	-455.14682	471.97629	-1644.38062	-604.58051	364.98489	-1637.95239	-767.86041	227.76378	-1572.59888	-805.29041	235.27451	-1507.83752	-721.97235	91.5201	-1595.14038	-449.27975	601.87238	-1312.16882	-432.19882	445.56873	-1347.22205	-485.4599	276.13257	-1347.07288	-517.987	76.37092	-1400.59558	-569.80347	40.95174	-1448.79028	-379.19257	37.01331	-1404.66821	-401.52002	1705.78857	-1421.13647	-1973.09009	1023.5238	3101.93286	-2012.55127	1022.11371	3140.70801	NaN	NaN	NaN	NaN	NaN	NaN
47	0.46	-398.72824	1670.29565	-1512.81836	-380.17001	1670.69067	-1401.05896	-517.86816	1635.29602	-1501.37402	-501.25433	1634.50464	-1381.85486	-566.5249	1436.12073	-1456.24646	-603.99017	1141.82947	-1443.77722	-424.01642	1365.90063	-1469.36792	-383.49857	1212.08569	-1480.81543	-614.99133	1240.33154	-1373.61609	-500.94022	1399.94214	-1623.40906	-556.96179	1224.76953	-1707.7168	-578.6853	1072.70898	-1719.67407	-519.66046	977.34821	-1760.80981	-409.78915	891.54443	-1770.18286	-464.9487	870.10211	-1780.34998	-404.68393	818.97485	-1808.55469	-471.6572	1394.07971	-1312.42517	-533.86951	1200.62891	-1203.97485	-544.44391	1075.63318	-1197.77905	-522.36371	956.24139	-1170.24426	-454.26544	833.48358	-1199.16492	-492.38623	838.09644	-1153.96484	-462.02988	757.96466	-1160.30737	-440.87009	935.66119	-1574.31519	-411.80573	937.04492	-1358.88672	-618.40717	943.8678	-1498.20837	-597.77777	948.63776	-1354.52014	-437.68024	606.94391	-1646.1416	-435.44131	474.04285	-1644.17163	-583.48907	366.67474	-1637.2771	-743.63153	225.19437	-1572.77747	-782.04907	230.12112	-1507.94385	-692.08295	92.18142	-1598.41553	-443.1322	601.69379	-1312.49744	-427.74881	444.83585	-1347.50989	-482.31451	275.85281	-1347.29651	-517.13422	76.25198	-1400.78296	-569.6593	41.38171	-1448.82117	-378.88516	36.86715	-1404.77197	-389.89651	1705.87341	-1421.55591	-1973.13135	1023.51288	3101.94434	-2012.47485	1022.04425	3140.75806	NaN	NaN	NaN	NaN	NaN	NaN
